<svg width="195" height="69" viewBox="0 0 195 69" fill="none" xmlns="http://www.w3.org/2000/svg">
<path d="M97.9767 24.6644C99.5552 26.9691 100.343 30.1948 100.343 34.3391C100.343 36.8752 99.9493 39.1341 99.1589 41.1135C98.3708 43.0929 97.2391 44.6393 95.7706 45.755C94.2998 46.8684 92.5609 47.4251 90.5495 47.4251C89.2184 47.4251 88.0043 47.1456 86.9069 46.5889C85.8072 46.0322 84.8725 45.2578 84.1005 44.2682L83.8851 45.6381C83.7958 46.2132 83.3009 46.6347 82.719 46.6347H78.412C77.7591 46.6347 77.2322 46.1055 77.2322 45.4549V12.1764C77.2322 11.5235 77.7613 10.9966 78.4142 10.9966L83.3857 11.0012C84.0363 11.0012 84.5655 11.5304 84.5655 12.181V24.4995C85.3077 23.4777 86.2585 22.6736 87.42 22.0871C88.5792 21.5006 89.8416 21.2051 91.2024 21.2051C94.1417 21.2051 96.4006 22.3574 97.9767 24.6621V24.6644ZM92.7327 34.3391C92.7327 31.3998 92.3914 29.3746 91.711 28.2589C91.0305 27.1455 90.0409 26.5888 88.7419 26.5888C87.1016 26.5888 85.7087 27.5487 84.5655 29.4663V39.7229C85.0305 40.4652 85.5941 41.0448 86.2585 41.464C86.9229 41.881 87.6422 42.0894 88.4166 42.0894C91.294 42.0894 92.7327 39.5075 92.7327 34.3391Z" fill="#38B54F"/>
<path d="M120.579 22.74L119.798 27.5166C119.695 28.1535 119.097 28.598 118.458 28.4972C118.041 28.4307 117.679 28.3987 117.372 28.3987C115.917 28.3987 114.813 28.9027 114.055 29.9061C113.296 30.9118 112.701 32.4193 112.268 34.4307V45.4548C112.268 46.1078 111.739 46.6347 111.088 46.6347H106.117C105.464 46.6347 104.937 46.1055 104.937 45.4548V23.1753C104.937 22.5223 105.466 21.9954 106.117 21.9954H110.3C110.895 21.9954 111.397 22.4376 111.47 23.0286L111.942 26.7767C112.499 25.0768 113.342 23.7366 114.472 22.7629C115.601 21.7892 116.877 21.3013 118.3 21.3013C118.742 21.3013 119.164 21.3265 119.569 21.3792C120.233 21.4662 120.687 22.0802 120.577 22.7423L120.579 22.74Z" fill="#38B54F"/>
<path d="M121.72 47.9246C124.315 47.9246 126.419 45.8209 126.419 43.2259C126.419 40.6308 124.315 38.5271 121.72 38.5271C119.125 38.5271 117.021 40.6308 117.021 43.2259C117.021 45.8209 119.125 47.9246 121.72 47.9246Z" fill="#38B54F"/>
<path d="M138.304 21.9954H130.971V46.6369H138.304V21.9954Z" fill="#655B4A"/>
<path d="M166.098 21.9954H159.649V31.1844L160.763 41.2921L153.246 21.9954H144.195V46.6369H150.646V37.9954L149.532 28.3528L156.941 46.6369H166.098V21.9954Z" fill="#655B4A"/>
<path d="M191.528 24.6646C193.663 26.9693 194.731 30.1949 194.731 34.3393C194.731 36.9693 194.243 39.2671 193.269 41.2305C192.296 43.1961 190.903 44.7196 189.093 45.8009C187.283 46.8846 185.141 47.4252 182.667 47.4252C178.923 47.4252 175.977 46.2729 173.826 43.9682C171.675 41.6635 170.6 38.4378 170.6 34.2935C170.6 31.6634 171.088 29.3679 172.062 27.4023C173.035 25.4389 174.428 23.9154 176.238 22.8318C178.048 21.7482 180.19 21.2075 182.667 21.2075C186.44 21.2075 189.395 22.3599 191.53 24.6646H191.528Z" fill="#655B4A"/>
<path d="M138.648 10.9966H130.625V18.3299H138.648V10.9966Z" fill="#655B4A"/>
<path d="M38.7029 47.0219L25.6834 64.967L3.66725 34.3162L25.6834 3.66553L38.6937 21.6243L40.9481 18.488L28.6524 1.51432C27.9629 0.563576 26.8586 0 25.6834 0H25.6765C24.499 0.00229096 23.3924 0.570448 22.7051 1.52807L0.689005 32.1788C-0.229668 33.4571 -0.229668 35.1776 0.689005 36.456L22.7051 67.1067C23.3924 68.062 24.4966 68.6302 25.6742 68.6348H25.6834C26.8586 68.6348 27.9606 68.0712 28.6502 67.1227L40.9572 50.1605L38.7029 47.0242V47.0219Z" fill="#38B54F"/>
<path d="M47.9081 8.79736L29.5735 34.3163L47.9081 59.8353L66.4121 34.0781L47.9081 8.79736Z" fill="#655B4A"/>
<path d="M81.6057 61.2533L81.0513 63.3289C80.8222 63.2647 80.6412 63.2327 80.5083 63.2327C80.1303 63.2327 79.8165 63.4068 79.5667 63.7527C79.317 64.0986 79.0925 64.5958 78.8955 65.2418L78.4648 68.6027H76.5564L77.4682 61.3495H79.1315L79.1062 62.7012C79.3284 62.1994 79.6011 61.8168 79.9264 61.5465C80.2517 61.2785 80.5931 61.1433 80.9551 61.1433C81.1681 61.1433 81.3858 61.18 81.608 61.2533H81.6057Z" fill="#655B4A"/>
<path d="M81.7844 68.014C81.3033 67.4688 81.0626 66.7128 81.0626 65.746C81.0626 64.9991 81.1818 64.2729 81.42 63.5673C81.6583 62.8617 82.05 62.2775 82.5953 61.8124C83.1405 61.3473 83.8462 61.116 84.7076 61.116C85.569 61.116 86.231 61.3886 86.7144 61.9361C87.1978 62.4814 87.4407 63.2236 87.4407 64.1629C87.4407 64.9098 87.3216 65.6383 87.0833 66.3485C86.8451 67.0587 86.4533 67.6498 85.9081 68.124C85.3628 68.5982 84.6572 68.8342 83.7958 68.8342C82.9344 68.8342 82.2631 68.5616 81.782 68.014H81.7844ZM85.1291 66.2454C85.3582 65.5765 85.4773 64.8502 85.4865 64.0667C85.4865 63.5925 85.4109 63.2466 85.2597 63.0289C85.1085 62.8113 84.8794 62.7013 84.577 62.7013C84.0112 62.7013 83.6102 63.0381 83.3765 63.7116C83.1428 64.3852 83.026 65.1091 83.026 65.8834C83.026 66.3577 83.0993 66.7036 83.2482 66.9213C83.3971 67.1389 83.6263 67.2489 83.9378 67.2489C84.5037 67.2489 84.9023 66.9144 85.1314 66.2454H85.1291Z" fill="#655B4A"/>
<path d="M94.1074 61.8536C94.4534 62.3462 94.6252 63.0426 94.6252 63.943C94.6252 64.7356 94.5083 65.5008 94.2747 66.2385C94.041 66.9762 93.6401 67.5925 93.0743 68.0896C92.5084 68.5867 91.7523 68.8341 90.8085 68.8341C90.348 68.8341 89.9013 68.7837 89.466 68.6829C89.0307 68.5821 88.584 68.4332 88.1235 68.2316L89.356 58.4653L91.2896 58.2339L90.8222 61.9636C91.0697 61.7001 91.3469 61.4916 91.6608 61.3427C91.9723 61.1915 92.2931 61.1182 92.6207 61.1182C93.269 61.1182 93.7661 61.3633 94.112 61.8559L94.1074 61.8536ZM90.6229 63.5352L90.1785 67.0861C90.458 67.2053 90.7329 67.2648 91.0032 67.2648C91.3812 67.2648 91.6951 67.0953 91.9448 66.7585C92.1945 66.4218 92.3755 66.0002 92.4878 65.4962C92.6 64.9922 92.655 64.4882 92.655 63.9865C92.655 63.5123 92.5862 63.1801 92.4465 62.9899C92.3067 62.7998 92.1189 62.7035 91.8807 62.7035C91.4362 62.7035 91.0193 62.9807 90.6252 63.5375L90.6229 63.5352Z" fill="#655B4A"/>
<path d="M96.0112 68.014C95.5301 67.4688 95.2896 66.7128 95.2896 65.746C95.2896 64.9991 95.4087 64.2729 95.647 63.5673C95.8852 62.8617 96.2769 62.2775 96.8222 61.8124C97.3674 61.3474 98.0731 61.116 98.9345 61.116C99.7959 61.116 100.458 61.3886 100.941 61.9361C101.425 62.4814 101.668 63.2236 101.668 64.1629C101.668 64.9098 101.549 65.6383 101.31 66.3485C101.072 67.0587 100.68 67.6498 100.135 68.124C99.5897 68.5982 98.8841 68.8342 98.0227 68.8342C97.1613 68.8342 96.49 68.5616 96.0089 68.014H96.0112ZM99.3538 66.2454C99.5829 65.5765 99.702 64.8502 99.7112 64.0667C99.7112 63.5925 99.6355 63.2466 99.4843 63.0289C99.3331 62.8113 99.104 62.7013 98.8016 62.7013C98.2357 62.7013 97.8348 63.0381 97.6011 63.7116C97.3674 64.3852 97.2506 65.1091 97.2506 65.8835C97.2506 66.3577 97.324 66.7036 97.4729 66.9213C97.6218 67.1389 97.8508 67.2489 98.1624 67.2489C98.7283 67.2489 99.1269 66.9144 99.356 66.2454H99.3538ZM100.327 57.1961L100.918 58.8067L97.9012 60.1034L97.4705 58.9968L100.327 57.1938V57.1961Z" fill="#655B4A"/>
<path d="M104.687 66.1973C104.671 66.3622 104.662 66.4699 104.662 66.5249C104.662 66.7333 104.701 66.8868 104.779 66.9831C104.857 67.0793 104.974 67.1274 105.129 67.1274C105.244 67.1274 105.356 67.1091 105.468 67.0724C105.578 67.0358 105.714 66.9762 105.869 66.8937L106.373 68.3004C106.11 68.4745 105.819 68.6051 105.498 68.6967C105.177 68.7883 104.875 68.8342 104.586 68.8342C103.986 68.8342 103.528 68.6578 103.207 68.3027C102.886 67.9476 102.726 67.4367 102.726 66.7723C102.726 66.5913 102.738 66.3989 102.763 66.1996L103.193 62.8525H102.295L102.481 61.3496H103.466L103.872 59.7391L105.521 59.5352L105.287 61.3519H106.79L106.385 62.8548H105.104L104.685 66.2018L104.687 66.1973Z" fill="#655B4A"/>
<path d="M109.762 61.3497L108.85 68.6028H106.941L107.853 61.3497H109.762ZM108.272 59.6773C108.085 59.4734 107.988 59.2099 107.988 58.8915C107.988 58.4997 108.11 58.1767 108.353 57.9224C108.596 57.6681 108.896 57.5398 109.258 57.5398C109.562 57.5398 109.807 57.6406 109.998 57.8399C110.185 58.0392 110.282 58.3004 110.282 58.6188C110.282 59.0106 110.16 59.3359 109.917 59.5948C109.675 59.8537 109.374 59.9842 109.012 59.9842C108.708 59.9842 108.463 59.8812 108.272 59.6773Z" fill="#655B4A"/>
<path d="M116.142 62.0462L115.193 63.2764C114.866 62.9397 114.488 62.7701 114.059 62.7701C113.459 62.7701 113.033 63.0771 112.779 63.6911C112.524 64.3051 112.396 65.0038 112.396 65.7873C112.396 66.2707 112.483 66.6144 112.662 66.8183C112.838 67.0221 113.09 67.1252 113.42 67.1252C113.642 67.1252 113.846 67.0863 114.036 67.0084C114.224 66.9305 114.451 66.8022 114.715 66.6189L115.429 67.9981C114.747 68.5525 113.995 68.832 113.175 68.832C112.304 68.832 111.624 68.5525 111.131 67.9912C110.639 67.4322 110.391 66.6693 110.391 65.7026C110.391 65.0107 110.52 64.3119 110.774 63.6063C111.028 62.9007 111.432 62.3097 111.981 61.8308C112.531 61.352 113.221 61.1138 114.05 61.1138C114.88 61.1138 115.601 61.423 116.144 62.0416L116.142 62.0462Z" fill="#655B4A"/>
<path d="M122.337 61.8812L121.734 66.525C121.718 66.69 121.709 66.7931 121.709 66.8389C121.709 66.9855 121.734 67.1 121.782 67.1871C121.83 67.2742 121.922 67.3452 122.052 67.3979L121.498 68.7908C121.12 68.7541 120.797 68.6373 120.524 68.4425C120.254 68.2478 120.073 67.9614 119.982 67.588C119.457 68.4173 118.806 68.832 118.036 68.832C117.354 68.832 116.831 68.5754 116.467 68.06C116.101 67.5468 115.92 66.8412 115.92 65.95C115.92 65.1848 116.048 64.4334 116.302 63.6957C116.557 62.958 116.964 62.344 117.528 61.8515C118.089 61.3589 118.802 61.1138 119.665 61.1138C120.609 61.1138 121.5 61.3681 122.339 61.8789L122.337 61.8812ZM118.637 63.1527C118.378 63.4895 118.192 63.9087 118.075 64.4082C117.961 64.9099 117.904 65.4185 117.904 65.9385C117.904 66.4219 117.968 66.761 118.094 66.9557C118.222 67.1527 118.403 67.249 118.641 67.249C119.077 67.249 119.491 66.9122 119.885 66.2386L120.341 62.7839C120.103 62.6922 119.86 62.6464 119.615 62.6464C119.221 62.6464 118.893 62.8159 118.637 63.1527Z" fill="#655B4A"/>
<path d="M130.731 65.1182C129.954 65.5466 128.942 65.8284 127.695 65.9659C127.737 66.8227 128.126 67.2488 128.866 67.2488C129.136 67.2488 129.407 67.1938 129.672 67.0839C129.938 66.9739 130.224 66.8067 130.529 66.5776L131.219 67.8605C130.415 68.5065 129.549 68.8296 128.621 68.8296C127.693 68.8296 126.987 68.5547 126.502 68.0025C126.016 67.4527 125.775 66.7036 125.775 65.7551C125.775 65.0266 125.901 64.3072 126.151 63.597C126.401 62.8868 126.806 62.2958 127.365 61.8215C127.924 61.3473 128.63 61.1113 129.485 61.1113C130.247 61.1113 130.841 61.2969 131.265 61.6703C131.688 62.0437 131.899 62.518 131.899 63.0907C131.899 64.0117 131.512 64.6852 130.735 65.1113L130.731 65.1182ZM129.443 64.1698C129.789 63.9017 129.961 63.5764 129.961 63.1938C129.961 63.022 129.913 62.8708 129.812 62.7425C129.714 62.6142 129.553 62.5523 129.331 62.5523C128.905 62.5523 128.563 62.7517 128.309 63.1526C128.055 63.5535 127.878 64.0529 127.78 64.6554C128.543 64.6005 129.097 64.4401 129.443 64.1698Z" fill="#655B4A"/>
<path d="M139.198 58.4677L137.917 68.6029H136.218L136.229 67.5651C136 67.9477 135.723 68.2547 135.397 68.4861C135.072 68.7175 134.701 68.8343 134.282 68.8343C133.608 68.8343 133.097 68.5777 132.749 68.0623C132.401 67.5491 132.227 66.8297 132.227 65.9111C132.227 65.1917 132.339 64.4609 132.566 63.7186C132.793 62.9763 133.138 62.3578 133.606 61.8606C134.073 61.3635 134.657 61.1161 135.354 61.1161C135.977 61.1161 136.479 61.3475 136.857 61.8125L137.301 58.2478L139.198 58.4654V58.4677ZM134.857 63.2146C134.623 63.5651 134.456 63.9889 134.357 64.4838C134.259 64.9809 134.208 65.4597 134.208 65.9248C134.208 66.3899 134.27 66.7495 134.394 66.9489C134.518 67.1482 134.694 67.249 134.923 67.249C135.177 67.249 135.418 67.1298 135.645 66.8939C135.872 66.6579 136.103 66.3303 136.341 65.9111L136.687 63.2077C136.564 63.0359 136.428 62.9053 136.282 62.8183C136.133 62.7312 135.966 62.6877 135.778 62.6877C135.4 62.6877 135.095 62.8641 134.859 63.2146H134.857Z" fill="#655B4A"/>
<path d="M139.975 68.3554C139.704 68.037 139.569 67.5949 139.569 67.0313C139.569 66.8663 139.581 66.6991 139.606 66.525L140.27 61.3474H142.179L141.576 66.1813C141.56 66.3646 141.551 66.4769 141.551 66.5227C141.551 66.7403 141.59 66.8961 141.668 66.9877C141.746 67.0794 141.858 67.1252 142.007 67.1252C142.392 67.1252 142.811 66.7426 143.262 65.9774L143.842 61.3474H145.75L144.838 68.6006H143.189L143.226 67.5215C142.618 68.3967 141.929 68.832 141.157 68.832C140.639 68.832 140.245 68.6716 139.975 68.3532V68.3554Z" fill="#655B4A"/>
<path d="M152.131 62.0462L151.182 63.2764C150.855 62.9397 150.477 62.7701 150.048 62.7701C149.448 62.7701 149.022 63.0771 148.768 63.6911C148.513 64.3051 148.385 65.0038 148.385 65.7873C148.385 66.2707 148.472 66.6144 148.651 66.8183C148.827 67.0221 149.079 67.1252 149.409 67.1252C149.631 67.1252 149.835 67.0863 150.025 67.0084C150.213 66.9305 150.44 66.8022 150.703 66.6189L151.418 67.9981C150.735 68.5525 149.984 68.832 149.164 68.832C148.293 68.832 147.613 68.5525 147.12 67.9912C146.628 67.4322 146.38 66.6693 146.38 65.7026C146.38 65.0107 146.509 64.3119 146.763 63.6063C147.017 62.9007 147.42 62.3097 147.97 61.8308C148.52 61.352 149.21 61.1138 150.039 61.1138C150.868 61.1138 151.59 61.423 152.133 62.0416L152.131 62.0462Z" fill="#655B4A"/>
<path d="M158.328 61.8812L157.725 66.525C157.709 66.69 157.7 66.7931 157.7 66.8389C157.7 66.9855 157.725 67.1 157.773 67.1871C157.821 67.2742 157.913 67.3452 158.044 67.3979L157.489 68.7908C157.111 68.7541 156.788 68.6373 156.515 68.4425C156.245 68.2478 156.064 67.9614 155.973 67.588C155.448 68.4173 154.797 68.832 154.028 68.832C153.345 68.832 152.822 68.5754 152.458 68.06C152.092 67.5468 151.911 66.8412 151.911 65.95C151.911 65.1848 152.039 64.4334 152.293 63.6957C152.548 62.958 152.955 62.344 153.519 61.8515C154.08 61.3589 154.793 61.1138 155.656 61.1138C156.6 61.1138 157.491 61.3681 158.33 61.8789L158.328 61.8812ZM154.625 63.1527C154.367 63.4895 154.181 63.9087 154.064 64.4082C153.95 64.9099 153.892 65.4185 153.892 65.9385C153.892 66.4219 153.956 66.761 154.082 66.9557C154.211 67.1527 154.392 67.249 154.63 67.249C155.065 67.249 155.48 66.9122 155.874 66.2386L156.33 62.7839C156.092 62.6922 155.849 62.6464 155.604 62.6464C155.21 62.6464 154.882 62.8159 154.625 63.1527Z" fill="#655B4A"/>
<path d="M164.719 62.0462L163.771 63.2764C163.443 62.9397 163.065 62.7701 162.637 62.7701C162.037 62.7701 161.611 63.0771 161.356 63.6911C161.102 64.3051 160.974 65.0038 160.974 65.7873C160.974 66.2707 161.061 66.6144 161.239 66.8183C161.416 67.0221 161.668 67.1252 161.998 67.1252C162.22 67.1252 162.424 67.0863 162.614 67.0084C162.802 66.9305 163.029 66.8022 163.292 66.6189L164.007 67.9981C163.324 68.5525 162.573 68.832 161.753 68.832C160.882 68.832 160.202 68.5525 159.709 67.9912C159.217 67.4322 158.969 66.6693 158.969 65.7026C158.969 65.0107 159.097 64.3119 159.352 63.6063C159.606 62.9007 160.009 62.3097 160.559 61.8308C161.109 61.352 161.798 61.1138 162.628 61.1138C163.457 61.1138 164.179 61.423 164.722 62.0416L164.719 62.0462Z" fill="#655B4A"/>
<path d="M167.54 61.3497L166.628 68.6028H164.719L165.631 61.3497H167.54ZM166.05 59.6773C165.863 59.4734 165.766 59.2099 165.766 58.8915C165.766 58.4997 165.888 58.1767 166.131 57.9224C166.373 57.6681 166.674 57.5398 167.035 57.5398C167.34 57.5398 167.585 57.6406 167.775 57.8399C167.963 58.0392 168.06 58.3004 168.06 58.6188C168.06 59.0106 167.938 59.3359 167.695 59.5948C167.453 59.8537 167.152 59.9842 166.79 59.9842C166.486 59.9842 166.241 59.8812 166.05 59.6773Z" fill="#655B4A"/>
<path d="M168.9 68.014C168.419 67.4688 168.179 66.7128 168.179 65.746C168.179 64.9991 168.298 64.2729 168.536 63.5673C168.774 62.8617 169.166 62.2775 169.711 61.8124C170.257 61.3473 170.962 61.116 171.824 61.116C172.685 61.116 173.347 61.3886 173.83 61.9361C174.314 62.4814 174.557 63.2236 174.557 64.1629C174.557 64.9098 174.438 65.6383 174.199 66.3485C173.961 67.0587 173.569 67.6498 173.024 68.124C172.479 68.5982 171.773 68.8342 170.912 68.8342C170.05 68.8342 169.379 68.5616 168.898 68.014H168.9ZM172.245 66.2454C172.474 65.5765 172.593 64.8502 172.603 64.0667C172.603 63.5925 172.527 63.2466 172.376 63.0289C172.225 62.8113 171.995 62.7013 171.693 62.7013C171.127 62.7013 170.726 63.0381 170.493 63.7116C170.259 64.3852 170.142 65.1091 170.142 65.8834C170.142 66.3577 170.215 66.7036 170.364 66.9213C170.513 67.1389 170.742 67.2489 171.054 67.2489C171.62 67.2489 172.018 66.9144 172.247 66.2454H172.245Z" fill="#655B4A"/>
<path d="M181.052 61.581C181.315 61.8903 181.446 62.3187 181.446 62.8639C181.446 63.0105 181.434 63.1732 181.409 63.3565L180.756 68.6005H178.848L179.45 63.8055C179.466 63.6245 179.475 63.51 179.475 63.4641C179.475 63.2465 179.441 63.093 179.37 63.006C179.299 62.9189 179.2 62.8754 179.068 62.8754C178.623 62.8754 178.144 63.4527 177.627 64.6096L177.109 68.5982H175.2L176.112 61.345H177.776L177.739 62.6142C178.025 62.1491 178.362 61.7826 178.749 61.5145C179.134 61.2465 179.542 61.1113 179.968 61.1113C180.428 61.1113 180.788 61.2671 181.052 61.5764V61.581Z" fill="#655B4A"/>
<path d="M188.639 61.8812L188.037 66.525C188.021 66.69 188.012 66.7931 188.012 66.8389C188.012 66.9855 188.037 67.1 188.085 67.1871C188.133 67.2742 188.225 67.3452 188.355 67.3979L187.801 68.7908C187.423 68.7541 187.1 68.6373 186.827 68.4425C186.557 68.2478 186.376 67.9614 186.284 67.588C185.76 68.4173 185.109 68.832 184.339 68.832C183.656 68.832 183.134 68.5754 182.77 68.06C182.403 67.5468 182.222 66.8412 182.222 65.95C182.222 65.1848 182.351 64.4334 182.605 63.6957C182.859 62.958 183.267 62.344 183.831 61.8515C184.392 61.3589 185.104 61.1138 185.968 61.1138C186.912 61.1138 187.803 61.3681 188.642 61.8789L188.639 61.8812ZM184.937 63.1527C184.678 63.4895 184.493 63.9087 184.376 64.4082C184.261 64.9099 184.204 65.4185 184.204 65.9385C184.204 66.4219 184.268 66.761 184.394 66.9557C184.522 67.1527 184.703 67.249 184.942 67.249C185.377 67.249 185.792 66.9122 186.186 66.2386L186.642 62.7839C186.403 62.6922 186.16 62.6464 185.915 62.6464C185.521 62.6464 185.194 62.8159 184.937 63.1527Z" fill="#655B4A"/>
<path d="M191.324 66.6486C191.308 66.8227 191.32 66.9441 191.361 67.0174C191.402 67.0907 191.475 67.1274 191.583 67.1274C191.672 67.1274 191.78 67.1045 191.904 67.0587L192.138 68.5615C191.769 68.7425 191.356 68.8341 190.905 68.8341C190.419 68.8341 190.046 68.6944 189.778 68.4172C189.51 68.14 189.377 67.7322 189.377 67.1938C189.377 67.038 189.388 66.8754 189.414 66.7013L190.46 58.4653L192.383 58.2339L191.324 66.6486Z" fill="#655B4A"/>
</svg>
